<svg width="24" height="24" viewBox="0 0 24 24" fill="none" xmlns="http://www.w3.org/2000/svg">
<g clip-path="url(#clip0_337_3133)">
<path d="M18.364 16.9498L13.4142 12L18.364 7.05027C18.5515 6.86273 18.6569 6.60838 18.6569 6.34316C18.6569 6.07795 18.5515 5.82359 18.364 5.63606C18.1764 5.44852 17.9221 5.34316 17.6569 5.34316C17.3916 5.34316 17.1373 5.44852 16.9497 5.63606L12 10.5858L7.05025 5.63606C6.86272 5.44852 6.60836 5.34316 6.34315 5.34316C6.07793 5.34316 5.82358 5.44852 5.63604 5.63606C5.4485 5.82359 5.34315 6.07795 5.34315 6.34316C5.34315 6.60838 5.4485 6.86273 5.63604 7.05027L10.5858 12L5.63604 16.9498C5.4485 17.1373 5.34315 17.3917 5.34315 17.6569C5.34315 17.9221 5.4485 18.1764 5.63604 18.364C5.82358 18.5515 6.07793 18.6569 6.34315 18.6569C6.60836 18.6569 6.86272 18.5515 7.05025 18.364L12 13.4142L16.9497 18.364C17.1373 18.5515 17.3916 18.6569 17.6569 18.6569C17.9221 18.6569 18.1764 18.5515 18.364 18.364C18.5515 18.1764 18.6569 17.9221 18.6569 17.6569C18.6569 17.3917 18.5515 17.1373 18.364 16.9498Z" fill="white"/>
</g>
<defs>
<clipPath id="clip0_337_3133">
<rect width="24" height="24" fill="white"/>
</clipPath>
</defs>
</svg>
