<svg width="17" height="16" viewBox="0 0 17 16" fill="none" xmlns="http://www.w3.org/2000/svg">
<circle cx="8.49992" cy="8.00004" r="6.66667" fill="white"/>
<path d="M8.49992 1.33337C7.18138 1.33337 5.89245 1.72437 4.79612 2.45691C3.69979 3.18945 2.84531 4.23064 2.34072 5.44882C1.83614 6.66699 1.70412 8.00744 1.96135 9.30064C2.21859 10.5938 2.85353 11.7817 3.78588 12.7141C4.71823 13.6464 5.90611 14.2814 7.19932 14.5386C8.49253 14.7958 9.83297 14.6638 11.0511 14.1592C12.2693 13.6547 13.3105 12.8002 14.0431 11.7038C14.7756 10.6075 15.1666 9.31858 15.1666 8.00004C15.1666 7.12456 14.9942 6.25766 14.6591 5.44882C14.3241 4.63998 13.833 3.90505 13.214 3.286C12.5949 2.66694 11.86 2.17588 11.0511 1.84084C10.2423 1.50581 9.3754 1.33337 8.49992 1.33337ZM10.9733 9.52671C11.0357 9.58868 11.0853 9.66242 11.1192 9.74366C11.153 9.8249 11.1705 9.91203 11.1705 10C11.1705 10.088 11.153 10.1752 11.1192 10.2564C11.0853 10.3377 11.0357 10.4114 10.9733 10.4734C10.9113 10.5359 10.8375 10.5855 10.7563 10.6193C10.6751 10.6531 10.5879 10.6706 10.4999 10.6706C10.4119 10.6706 10.3248 10.6531 10.2435 10.6193C10.1623 10.5855 10.0886 10.5359 10.0266 10.4734L8.49992 8.94004L6.97326 10.4734C6.91128 10.5359 6.83755 10.5855 6.75631 10.6193C6.67507 10.6531 6.58793 10.6706 6.49992 10.6706C6.41191 10.6706 6.32478 10.6531 6.24354 10.6193C6.1623 10.5855 6.08856 10.5359 6.02659 10.4734C5.9641 10.4114 5.91451 10.3377 5.88066 10.2564C5.84682 10.1752 5.82939 10.088 5.82939 10C5.82939 9.91203 5.84682 9.8249 5.88066 9.74366C5.91451 9.66242 5.9641 9.58868 6.02659 9.52671L7.55992 8.00004L6.02659 6.47337C5.90105 6.34784 5.83053 6.17758 5.83053 6.00004C5.83053 5.82251 5.90105 5.65224 6.02659 5.52671C6.15212 5.40117 6.32239 5.33065 6.49992 5.33065C6.67746 5.33065 6.84772 5.40117 6.97326 5.52671L8.49992 7.06004L10.0266 5.52671C10.1521 5.40117 10.3224 5.33065 10.4999 5.33065C10.6775 5.33065 10.8477 5.40117 10.9733 5.52671C11.0988 5.65224 11.1693 5.82251 11.1693 6.00004C11.1693 6.17758 11.0988 6.34784 10.9733 6.47337L9.43992 8.00004L10.9733 9.52671Z" fill="#F50031"/>
</svg>
