<svg width="10" height="6" viewBox="0 0 10 6" fill="none" xmlns="http://www.w3.org/2000/svg">
<path d="M0.728841 0.394532C0.853841 0.269532 0.999674 0.207031 1.16634 0.207031C1.33301 0.207031 1.47884 0.269532 1.60384 0.394532L4.99967 3.79036L8.39551 0.394532C8.52051 0.269532 8.66634 0.207031 8.83301 0.207031C8.99967 0.207031 9.14551 0.269532 9.27051 0.394532C9.39551 0.519532 9.45801 0.665365 9.45801 0.832031C9.45801 0.998698 9.39551 1.14453 9.27051 1.26953L5.52051 5.01953C5.45106 5.08898 5.37134 5.1412 5.28134 5.1762C5.19079 5.21064 5.0969 5.22786 4.99967 5.22786C4.90245 5.22786 4.80884 5.21064 4.71884 5.1762C4.62829 5.1412 4.54829 5.08898 4.47884 5.01953L0.728841 1.26953C0.603841 1.14453 0.541341 0.998698 0.541341 0.832031C0.541341 0.665365 0.603841 0.519532 0.728841 0.394532Z" fill="white"/>
</svg>
