<svg width="312" height="56" viewBox="0 0 312 56" fill="none" xmlns="http://www.w3.org/2000/svg">
<rect x="36.5" y="0.5" width="31" height="31" rx="15.5" fill="#FBE5F4"/>
<path d="M50.0002 20.6668C49.9124 20.6673 49.8255 20.6505 49.7442 20.6173C49.663 20.5842 49.5891 20.5353 49.5268 20.4735L46.1935 17.1402C46.068 17.0146 45.9974 16.8444 45.9974 16.6668C45.9974 16.4893 46.068 16.319 46.1935 16.1935C46.319 16.068 46.4893 15.9974 46.6668 15.9974C46.8444 15.9974 47.0146 16.068 47.1402 16.1935L50.0002 19.0602L56.8602 12.1935C56.9857 12.068 57.156 11.9974 57.3335 11.9974C57.511 11.9974 57.6813 12.068 57.8068 12.1935C57.9324 12.319 58.0029 12.4893 58.0029 12.6668C58.0029 12.8444 57.9324 13.0146 57.8068 13.1402L50.4735 20.4735C50.4112 20.5353 50.3373 20.5842 50.2561 20.6173C50.1749 20.6505 50.0879 20.6673 50.0002 20.6668Z" fill="#8F005D"/>
<rect x="36.5" y="0.5" width="31" height="31" rx="15.5" stroke="#D9008D"/>
<path d="M76 16C76 15.7239 76.2239 15.5 76.5 15.5H104V16.5H76.5C76.2239 16.5 76 16.2761 76 16Z" fill="#D9008D"/>
<path d="M23.7654 43.708H29.8374V45.364H25.8294V47.128H29.2854V48.664H25.8294V52H23.7654V43.708ZM30.6527 45.784H32.5247V52H30.6527V45.784ZM30.5447 44.056C30.5447 43.768 30.6367 43.532 30.8207 43.348C31.0127 43.164 31.2687 43.072 31.5887 43.072C31.9087 43.072 32.1647 43.164 32.3567 43.348C32.5487 43.532 32.6447 43.768 32.6447 44.056C32.6447 44.344 32.5487 44.58 32.3567 44.764C32.1647 44.94 31.9087 45.028 31.5887 45.028C31.2687 45.028 31.0127 44.94 30.8207 44.764C30.6367 44.58 30.5447 44.344 30.5447 44.056ZM33.7802 43.432H35.6522V52H33.7802V43.432ZM36.9077 43.432H38.7797V52H36.9077V43.432ZM45.6433 52.168C45.0833 52.168 44.6073 52.024 44.2153 51.736C43.8233 51.44 43.5273 51.044 43.3273 50.548C43.1273 50.044 43.0273 49.48 43.0273 48.856C43.0273 48.232 43.1273 47.676 43.3273 47.188C43.5273 46.7 43.8233 46.32 44.2153 46.048C44.6073 45.768 45.0793 45.628 45.6313 45.628C46.0073 45.628 46.3553 45.712 46.6753 45.88C46.9953 46.048 47.2433 46.284 47.4193 46.588H47.4433V43.432H49.3273V52H47.5153V51.184H47.4913C47.1153 51.84 46.4993 52.168 45.6433 52.168ZM44.9113 48.892C44.9113 49.444 45.0193 49.896 45.2353 50.248C45.4593 50.592 45.7833 50.764 46.2073 50.764C46.6313 50.764 46.9513 50.6 47.1673 50.272C47.3913 49.944 47.5033 49.48 47.5033 48.88C47.5033 48.296 47.3913 47.84 47.1673 47.512C46.9513 47.184 46.6273 47.02 46.1953 47.02C45.7873 47.02 45.4713 47.188 45.2473 47.524C45.0233 47.852 44.9113 48.308 44.9113 48.892ZM53.3881 52.168C52.7561 52.168 52.2001 52.036 51.7201 51.772C51.2481 51.508 50.8801 51.132 50.6161 50.644C50.3601 50.148 50.2321 49.568 50.2321 48.904C50.2321 48.28 50.3601 47.72 50.6161 47.224C50.8801 46.72 51.2481 46.328 51.7201 46.048C52.2001 45.768 52.7561 45.628 53.3881 45.628C54.0521 45.628 54.6161 45.772 55.0801 46.06C55.5521 46.34 55.9041 46.744 56.1361 47.272C56.3761 47.792 56.4961 48.404 56.4961 49.108V49.324H52.0561C52.0721 49.812 52.2041 50.192 52.4521 50.464C52.7001 50.736 53.0481 50.872 53.4961 50.872C53.8081 50.872 54.0641 50.812 54.2641 50.692C54.4641 50.572 54.6001 50.408 54.6721 50.2H56.3641C56.1881 50.832 55.8481 51.32 55.3441 51.664C54.8401 52 54.1881 52.168 53.3881 52.168ZM54.6841 48.244C54.6601 47.828 54.5361 47.504 54.3121 47.272C54.0881 47.032 53.7841 46.912 53.4001 46.912C53.0241 46.912 52.7161 47.028 52.4761 47.26C52.2441 47.492 52.1041 47.82 52.0561 48.244H54.6841ZM60.169 52.096C59.465 52.096 58.929 51.924 58.561 51.58C58.193 51.236 58.009 50.66 58.009 49.852V47.104H56.881V45.784H58.009V43.9H59.893V45.784H61.237V47.104H59.893V49.6C59.893 49.856 59.917 50.056 59.965 50.2C60.021 50.344 60.105 50.448 60.217 50.512C60.329 50.576 60.481 50.608 60.673 50.608C60.889 50.608 61.085 50.588 61.261 50.548V51.976C60.981 52.056 60.617 52.096 60.169 52.096ZM64.0248 52.168C63.5848 52.168 63.2048 52.092 62.8848 51.94C62.5648 51.78 62.3168 51.556 62.1408 51.268C61.9728 50.972 61.8888 50.62 61.8888 50.212C61.8888 48.868 62.9088 48.196 64.9488 48.196H65.9328V47.932C65.9328 47.54 65.8568 47.252 65.7048 47.068C65.5528 46.884 65.2968 46.792 64.9368 46.792C64.3288 46.792 63.9928 47.028 63.9288 47.5H62.1408C62.2128 46.884 62.4808 46.416 62.9448 46.096C63.4168 45.776 64.1048 45.616 65.0088 45.616C65.9528 45.616 66.6488 45.816 67.0968 46.216C67.5448 46.608 67.7688 47.232 67.7688 48.088V52H66.1008L65.9928 51.244H65.9688C65.8008 51.516 65.5568 51.74 65.2368 51.916C64.9168 52.084 64.5128 52.168 64.0248 52.168ZM63.7968 50.068C63.7968 50.356 63.8768 50.572 64.0368 50.716C64.2048 50.852 64.4328 50.92 64.7208 50.92C65.0808 50.92 65.3728 50.808 65.5968 50.584C65.8208 50.352 65.9328 50.032 65.9328 49.624V49.168H65.2488C64.7768 49.168 64.4168 49.24 64.1688 49.384C63.9208 49.52 63.7968 49.748 63.7968 50.068ZM68.9734 45.784H70.8454V52H68.9734V45.784ZM68.8654 44.056C68.8654 43.768 68.9574 43.532 69.1414 43.348C69.3334 43.164 69.5894 43.072 69.9094 43.072C70.2294 43.072 70.4854 43.164 70.6774 43.348C70.8694 43.532 70.9654 43.768 70.9654 44.056C70.9654 44.344 70.8694 44.58 70.6774 44.764C70.4854 44.94 70.2294 45.028 69.9094 45.028C69.5894 45.028 69.3334 44.94 69.1414 44.764C68.9574 44.58 68.8654 44.344 68.8654 44.056ZM72.1009 43.432H73.9729V52H72.1009V43.432ZM77.7964 52.168C76.9244 52.168 76.2284 52 75.7084 51.664C75.1884 51.32 74.9204 50.808 74.9044 50.128H76.6924C76.7084 50.392 76.8124 50.592 77.0044 50.728C77.2044 50.864 77.4764 50.932 77.8204 50.932C78.1084 50.932 78.3444 50.88 78.5284 50.776C78.7204 50.664 78.8164 50.496 78.8164 50.272C78.8164 50.064 78.7244 49.904 78.5404 49.792C78.3644 49.68 78.0844 49.584 77.7004 49.504L76.9324 49.324C76.2924 49.18 75.8164 48.968 75.5044 48.688C75.1924 48.408 75.0364 48.02 75.0364 47.524C75.0364 47.092 75.1524 46.736 75.3844 46.456C75.6244 46.176 75.9484 45.968 76.3564 45.832C76.7724 45.696 77.2404 45.628 77.7604 45.628C78.5924 45.628 79.2404 45.788 79.7044 46.108C80.1764 46.42 80.4284 46.872 80.4604 47.464H78.7324C78.7164 47.248 78.6204 47.084 78.4444 46.972C78.2764 46.852 78.0404 46.792 77.7364 46.792C77.4644 46.792 77.2484 46.84 77.0884 46.936C76.9364 47.032 76.8604 47.176 76.8604 47.368C76.8604 47.536 76.9364 47.672 77.0884 47.776C77.2404 47.88 77.4884 47.968 77.8324 48.04L78.6004 48.196C79.2804 48.34 79.7884 48.56 80.1244 48.856C80.4684 49.152 80.6404 49.56 80.6404 50.08C80.6404 50.792 80.3804 51.32 79.8604 51.664C79.3404 52 78.6524 52.168 77.7964 52.168Z" fill="white"/>
<path d="M104 15.5H131.5C131.776 15.5 132 15.7239 132 16C132 16.2761 131.776 16.5 131.5 16.5H104V15.5Z" fill="#D9008D"/>
<rect x="140" width="32" height="32" rx="16" fill="#D9008D"/>
<path d="M152.65 19.616C153.748 18.8373 154.612 18.192 155.242 17.68C155.882 17.168 156.415 16.6347 156.842 16.08C157.268 15.5253 157.482 14.9813 157.482 14.448C157.482 13.9147 157.348 13.504 157.082 13.216C156.815 12.928 156.436 12.784 155.946 12.784C155.434 12.784 155.023 12.944 154.714 13.264C154.415 13.5733 154.266 14.0107 154.266 14.576V14.624H151.802V14.576C151.802 13.8187 151.978 13.1467 152.33 12.56C152.682 11.9733 153.178 11.52 153.818 11.2C154.458 10.88 155.194 10.72 156.026 10.72C156.836 10.72 157.54 10.864 158.138 11.152C158.746 11.44 159.21 11.856 159.53 12.4C159.85 12.9333 160.01 13.568 160.01 14.304C160.01 15.0933 159.818 15.8027 159.434 16.432C159.06 17.0507 158.602 17.584 158.058 18.032C157.524 18.48 156.81 19.0027 155.914 19.6L155.642 19.792V19.824H160.17V22H151.898V20.144L152.65 19.616Z" fill="white"/>
<path d="M180 16C180 15.7239 180.224 15.5 180.5 15.5H208V16.5H180.5C180.224 16.5 180 16.2761 180 16Z" fill="#E0E0E0"/>
<path d="M140.261 52.192C139.037 52.192 138.125 51.908 137.525 51.34C136.933 50.764 136.637 49.932 136.637 48.844V43.708H138.701V48.712C138.701 49.312 138.825 49.76 139.073 50.056C139.321 50.352 139.717 50.5 140.261 50.5C140.813 50.5 141.209 50.36 141.449 50.08C141.697 49.8 141.821 49.348 141.821 48.724V43.708H143.885V48.856C143.885 49.944 143.581 50.772 142.973 51.34C142.373 51.908 141.469 52.192 140.261 52.192ZM145.154 45.784H146.966V46.576H146.978C147.17 46.264 147.422 46.028 147.734 45.868C148.046 45.708 148.402 45.628 148.802 45.628C149.362 45.628 149.838 45.772 150.23 46.06C150.63 46.348 150.93 46.744 151.13 47.248C151.338 47.744 151.442 48.312 151.442 48.952C151.442 49.568 151.342 50.12 151.142 50.608C150.942 51.088 150.646 51.468 150.254 51.748C149.87 52.028 149.402 52.168 148.85 52.168C148.458 52.168 148.106 52.088 147.794 51.928C147.482 51.76 147.23 51.516 147.038 51.196H147.014V54.124H145.154V45.784ZM146.966 48.904C146.966 49.472 147.078 49.924 147.302 50.26C147.526 50.596 147.854 50.764 148.286 50.764C148.702 50.764 149.018 50.6 149.234 50.272C149.45 49.936 149.558 49.48 149.558 48.904C149.558 48.352 149.45 47.9 149.234 47.548C149.018 47.196 148.694 47.02 148.262 47.02C147.846 47.02 147.526 47.18 147.302 47.5C147.078 47.812 146.966 48.28 146.966 48.904ZM152.419 43.432H154.291V52H152.419V43.432ZM158.462 52.168C157.806 52.168 157.238 52.032 156.758 51.76C156.278 51.488 155.91 51.108 155.654 50.62C155.406 50.124 155.282 49.548 155.282 48.892C155.282 48.244 155.41 47.676 155.666 47.188C155.922 46.692 156.286 46.308 156.758 46.036C157.238 45.764 157.806 45.628 158.462 45.628C159.118 45.628 159.682 45.764 160.154 46.036C160.634 46.308 161.002 46.692 161.258 47.188C161.514 47.684 161.642 48.252 161.642 48.892C161.642 49.548 161.514 50.124 161.258 50.62C161.002 51.108 160.634 51.488 160.154 51.76C159.674 52.032 159.11 52.168 158.462 52.168ZM157.166 48.892C157.166 49.484 157.278 49.944 157.502 50.272C157.726 50.6 158.046 50.764 158.462 50.764C158.878 50.764 159.198 50.6 159.422 50.272C159.646 49.944 159.758 49.484 159.758 48.892C159.758 48.316 159.65 47.86 159.434 47.524C159.218 47.188 158.89 47.02 158.45 47.02C158.042 47.02 157.726 47.184 157.502 47.512C157.278 47.832 157.166 48.292 157.166 48.892ZM164.47 52.168C164.03 52.168 163.65 52.092 163.33 51.94C163.01 51.78 162.762 51.556 162.586 51.268C162.418 50.972 162.334 50.62 162.334 50.212C162.334 48.868 163.354 48.196 165.394 48.196H166.378V47.932C166.378 47.54 166.302 47.252 166.15 47.068C165.998 46.884 165.742 46.792 165.382 46.792C164.774 46.792 164.438 47.028 164.374 47.5H162.586C162.658 46.884 162.926 46.416 163.39 46.096C163.862 45.776 164.55 45.616 165.454 45.616C166.398 45.616 167.094 45.816 167.542 46.216C167.99 46.608 168.214 47.232 168.214 48.088V52H166.546L166.438 51.244H166.414C166.246 51.516 166.002 51.74 165.682 51.916C165.362 52.084 164.958 52.168 164.47 52.168ZM164.242 50.068C164.242 50.356 164.322 50.572 164.482 50.716C164.65 50.852 164.878 50.92 165.166 50.92C165.526 50.92 165.818 50.808 166.042 50.584C166.266 50.352 166.378 50.032 166.378 49.624V49.168H165.694C165.222 49.168 164.862 49.24 164.614 49.384C164.366 49.52 164.242 49.748 164.242 50.068ZM171.758 52.168C171.198 52.168 170.722 52.024 170.33 51.736C169.938 51.44 169.642 51.044 169.442 50.548C169.242 50.044 169.142 49.48 169.142 48.856C169.142 48.232 169.242 47.676 169.442 47.188C169.642 46.7 169.938 46.32 170.33 46.048C170.722 45.768 171.194 45.628 171.746 45.628C172.122 45.628 172.47 45.712 172.79 45.88C173.11 46.048 173.358 46.284 173.534 46.588H173.558V43.432H175.442V52H173.63V51.184H173.606C173.23 51.84 172.614 52.168 171.758 52.168ZM171.026 48.892C171.026 49.444 171.134 49.896 171.35 50.248C171.574 50.592 171.898 50.764 172.322 50.764C172.746 50.764 173.066 50.6 173.282 50.272C173.506 49.944 173.618 49.48 173.618 48.88C173.618 48.296 173.506 47.84 173.282 47.512C173.066 47.184 172.742 47.02 172.31 47.02C171.902 47.02 171.586 47.188 171.362 47.524C171.138 47.852 171.026 48.308 171.026 48.892Z" fill="white"/>
<path d="M208 15.5H235.5C235.776 15.5 236 15.7239 236 16C236 16.2761 235.776 16.5 235.5 16.5H208V15.5Z" fill="#E0E0E0"/>
<path d="M259.995 22.208C259.099 22.208 258.331 22.064 257.691 21.776C257.051 21.488 256.565 21.0773 256.235 20.544C255.904 20 255.739 19.3493 255.739 18.592V18.4H258.123V18.496C258.123 18.8267 258.197 19.1253 258.347 19.392C258.496 19.648 258.704 19.8507 258.971 20C259.248 20.1387 259.568 20.208 259.931 20.208C260.464 20.208 260.891 20.0693 261.211 19.792C261.531 19.5147 261.691 19.1307 261.691 18.64C261.691 18.1067 261.531 17.7013 261.211 17.424C260.901 17.1467 260.453 17.008 259.867 17.008H259.259V15.36H259.883C260.384 15.36 260.784 15.248 261.083 15.024C261.392 14.7893 261.547 14.464 261.547 14.048C261.547 13.6213 261.408 13.2907 261.131 13.056C260.853 12.8107 260.491 12.688 260.043 12.688C259.531 12.688 259.12 12.816 258.811 13.072C258.512 13.3173 258.363 13.6907 258.363 14.192V14.24H255.995C255.995 13.504 256.165 12.8747 256.507 12.352C256.848 11.8187 257.328 11.4133 257.947 11.136C258.565 10.8587 259.291 10.72 260.123 10.72C260.869 10.72 261.525 10.8373 262.091 11.072C262.656 11.3067 263.093 11.648 263.403 12.096C263.723 12.5333 263.883 13.0613 263.883 13.68C263.883 14.2987 263.728 14.816 263.419 15.232C263.109 15.648 262.709 15.9253 262.219 16.064V16.096C262.869 16.256 263.376 16.5707 263.739 17.04C264.112 17.4987 264.299 18.064 264.299 18.736C264.299 19.4293 264.123 20.0373 263.771 20.56C263.429 21.0827 262.933 21.488 262.283 21.776C261.632 22.064 260.869 22.208 259.995 22.208Z" fill="#B5B5B5"/>
<rect x="244.5" y="0.5" width="31" height="31" rx="15.5" stroke="#B5B5B5"/>
<path opacity="0.6" d="M243.547 52.192C242.811 52.192 242.175 52.088 241.639 51.88C241.103 51.672 240.687 51.372 240.391 50.98C240.103 50.58 239.959 50.1 239.959 49.54H242.011C242.011 49.924 242.147 50.212 242.419 50.404C242.699 50.596 243.099 50.692 243.619 50.692C244.051 50.692 244.403 50.612 244.675 50.452C244.947 50.292 245.083 50.056 245.083 49.744C245.083 49.496 244.975 49.292 244.759 49.132C244.551 48.972 244.203 48.824 243.715 48.688L242.323 48.316C241.611 48.116 241.083 47.832 240.739 47.464C240.403 47.096 240.235 46.628 240.235 46.06C240.235 45.54 240.371 45.088 240.643 44.704C240.923 44.32 241.311 44.028 241.807 43.828C242.303 43.62 242.879 43.516 243.535 43.516C244.191 43.516 244.763 43.608 245.251 43.792C245.739 43.976 246.119 44.252 246.391 44.62C246.663 44.98 246.803 45.42 246.811 45.94H244.855C244.831 45.636 244.703 45.404 244.471 45.244C244.239 45.084 243.911 45.004 243.487 45.004C243.103 45.004 242.795 45.076 242.563 45.22C242.339 45.364 242.227 45.576 242.227 45.856C242.227 46.024 242.263 46.16 242.335 46.264C242.407 46.368 242.523 46.46 242.683 46.54C242.851 46.612 243.087 46.688 243.391 46.768L244.387 47.02C245.027 47.18 245.543 47.368 245.935 47.584C246.335 47.792 246.635 48.052 246.835 48.364C247.035 48.676 247.135 49.06 247.135 49.516C247.135 50.044 246.995 50.512 246.715 50.92C246.443 51.32 246.039 51.632 245.503 51.856C244.967 52.08 244.315 52.192 243.547 52.192ZM250.166 52.168C249.438 52.168 248.886 51.968 248.51 51.568C248.142 51.168 247.958 50.572 247.958 49.78V45.784H249.83V49.276C249.83 49.756 249.914 50.108 250.082 50.332C250.25 50.548 250.514 50.656 250.874 50.656C251.234 50.656 251.506 50.544 251.69 50.32C251.882 50.096 251.978 49.748 251.978 49.276V45.784H253.85V52H252.05V51.16H252.026C251.818 51.488 251.558 51.74 251.246 51.916C250.934 52.084 250.574 52.168 250.166 52.168ZM258.779 52.168C258.331 52.168 257.947 52.088 257.627 51.928C257.315 51.768 257.063 51.52 256.871 51.184H256.859V52H255.047V43.432H256.907V46.588H256.931C257.115 46.284 257.367 46.048 257.687 45.88C258.015 45.712 258.375 45.628 258.767 45.628C259.271 45.628 259.715 45.756 260.099 46.012C260.483 46.26 260.779 46.628 260.987 47.116C261.203 47.604 261.311 48.188 261.311 48.868C261.311 49.524 261.207 50.104 260.999 50.608C260.791 51.104 260.495 51.488 260.111 51.76C259.735 52.032 259.291 52.168 258.779 52.168ZM256.859 48.892C256.859 49.468 256.967 49.924 257.183 50.26C257.407 50.596 257.731 50.764 258.155 50.764C258.563 50.764 258.875 50.596 259.091 50.26C259.315 49.924 259.427 49.468 259.427 48.892C259.427 48.316 259.315 47.86 259.091 47.524C258.875 47.188 258.563 47.02 258.155 47.02C257.739 47.02 257.419 47.184 257.195 47.512C256.971 47.84 256.859 48.3 256.859 48.892ZM262.3 45.784H264.1V46.636H264.124C264.54 45.964 265.16 45.628 265.984 45.628C266.416 45.628 266.78 45.716 267.076 45.892C267.38 46.068 267.6 46.324 267.736 46.66H267.748C268.196 45.972 268.848 45.628 269.704 45.628C270.368 45.628 270.884 45.82 271.252 46.204C271.62 46.588 271.804 47.132 271.804 47.836V52H269.932V48.424C269.932 47.968 269.852 47.632 269.692 47.416C269.54 47.192 269.308 47.08 268.996 47.08C268.332 47.08 268 47.528 268 48.424V52H266.116V48.424C266.116 47.968 266.036 47.632 265.876 47.416C265.724 47.192 265.492 47.08 265.18 47.08C264.516 47.08 264.184 47.528 264.184 48.424V52H262.3V45.784ZM273.045 45.784H274.917V52H273.045V45.784ZM272.937 44.056C272.937 43.768 273.029 43.532 273.213 43.348C273.405 43.164 273.661 43.072 273.981 43.072C274.301 43.072 274.557 43.164 274.749 43.348C274.941 43.532 275.037 43.768 275.037 44.056C275.037 44.344 274.941 44.58 274.749 44.764C274.557 44.94 274.301 45.028 273.981 45.028C273.661 45.028 273.405 44.94 273.213 44.764C273.029 44.58 272.937 44.344 272.937 44.056ZM278.896 52.096C278.192 52.096 277.656 51.924 277.288 51.58C276.92 51.236 276.736 50.66 276.736 49.852V47.104H275.608V45.784H276.736V43.9H278.62V45.784H279.964V47.104H278.62V49.6C278.62 49.856 278.644 50.056 278.692 50.2C278.748 50.344 278.832 50.448 278.944 50.512C279.056 50.576 279.208 50.608 279.4 50.608C279.616 50.608 279.812 50.588 279.988 50.548V51.976C279.708 52.056 279.344 52.096 278.896 52.096Z" fill="white"/>
</svg>
