<svg width="25" height="24" viewBox="0 0 25 24" fill="none" xmlns="http://www.w3.org/2000/svg">
<path d="M12.5 4C13.8471 4.00388 15.1713 4.34785 16.35 5H15.5C15.3014 4.99884 15.1069 5.05687 14.9414 5.16667C14.7759 5.27647 14.6468 5.43307 14.5706 5.61652C14.4945 5.79996 14.4747 6.00193 14.5137 6.19668C14.5528 6.39143 14.649 6.57013 14.79 6.71C14.8834 6.80268 14.9943 6.87601 15.1161 6.92577C15.2379 6.97554 15.3684 7.00076 15.5 7H18.5C18.7652 7 19.0196 6.89464 19.2071 6.70711C19.3946 6.51957 19.5 6.26522 19.5 6V3C19.5 2.73478 19.3946 2.48043 19.2071 2.29289C19.0196 2.10536 18.7652 2 18.5 2C18.2348 2 17.9804 2.10536 17.7929 2.29289C17.6054 2.48043 17.5 2.73478 17.5 3V3.36C15.9818 2.47524 14.2572 2.00615 12.5 2C10.7464 2.0018 9.02405 2.46471 7.50581 3.34231C5.98758 4.2199 4.72681 5.48131 3.85 7C2.96609 8.51809 2.50027 10.2433 2.5 12C2.5 12.2652 2.60536 12.5196 2.79289 12.7071C2.98043 12.8946 3.23478 13 3.5 13C3.76522 13 4.01957 12.8946 4.20711 12.7071C4.39464 12.5196 4.5 12.2652 4.5 12C4.5 9.87827 5.34285 7.84344 6.84315 6.34315C8.34344 4.84285 10.3783 4 12.5 4ZM22.21 11.29C22.0701 11.149 21.8914 11.0528 21.6967 11.0137C21.5019 10.9747 21.3 10.9945 21.1165 11.0706C20.9331 11.1468 20.7765 11.2759 20.6667 11.4414C20.5569 11.6069 20.4988 11.8014 20.5 12C20.4969 13.3872 20.1331 14.7497 19.4443 15.9539C18.7556 17.158 17.7655 18.1624 16.5714 18.8683C15.3773 19.5743 14.0201 19.9577 12.6331 19.9808C11.2461 20.0038 9.87694 19.6659 8.66 19H9.5C9.76522 19 10.0196 18.8946 10.2071 18.7071C10.3946 18.5196 10.5 18.2652 10.5 18C10.5 17.7348 10.3946 17.4804 10.2071 17.2929C10.0196 17.1054 9.76522 17 9.5 17H6.5C6.23478 17 5.98043 17.1054 5.79289 17.2929C5.60536 17.4804 5.5 17.7348 5.5 18V21C5.49884 21.1986 5.55687 21.3931 5.66667 21.5586C5.77647 21.7241 5.93307 21.8532 6.11652 21.9294C6.29996 22.0055 6.50193 22.0254 6.69668 21.9863C6.89143 21.9472 7.07013 21.851 7.21 21.71C7.30268 21.6166 7.37601 21.5057 7.42577 21.3839C7.47554 21.2621 7.50076 21.1316 7.5 21V20.64C9.01823 21.5248 10.7428 21.9938 12.5 22C14.2553 22 15.9797 21.5379 17.4999 20.6602C19.02 19.7825 20.2823 18.5202 21.16 17C22.0404 15.4809 22.5028 13.7558 22.5 12C22.5008 11.8684 22.4755 11.7379 22.4258 11.6161C22.376 11.4943 22.3027 11.3834 22.21 11.29Z" fill="white"/>
</svg>
