<svg width="328" height="40" viewBox="0 0 328 40" fill="none" xmlns="http://www.w3.org/2000/svg">
<rect width="328" height="40" rx="20" fill="#D9008D"/>
<path d="M119.76 25.756C118.661 25.756 117.755 25.5853 117.04 25.244C116.325 24.892 115.792 24.3853 115.44 23.724C115.099 23.0627 114.928 22.252 114.928 21.292V14.444H117.68V21.116C117.68 21.6493 117.749 22.092 117.888 22.444C118.037 22.7853 118.261 23.0467 118.56 23.228C118.869 23.4093 119.269 23.5 119.76 23.5C120.251 23.5 120.645 23.42 120.944 23.26C121.253 23.0893 121.477 22.8333 121.616 22.492C121.765 22.14 121.84 21.6867 121.84 21.132V14.444H124.592V21.308C124.592 22.268 124.416 23.084 124.064 23.756C123.712 24.4173 123.173 24.9187 122.448 25.26C121.733 25.5907 120.837 25.756 119.76 25.756ZM126.364 17.212H128.78V18.268H128.796C129.062 17.852 129.398 17.5373 129.804 17.324C130.22 17.1107 130.694 17.004 131.228 17.004C131.974 17.004 132.609 17.196 133.132 17.58C133.665 17.9533 134.065 18.476 134.332 19.148C134.609 19.8093 134.748 20.572 134.748 21.436C134.748 22.2467 134.614 22.9773 134.348 23.628C134.081 24.2787 133.686 24.7907 133.164 25.164C132.641 25.5373 132.017 25.724 131.292 25.724C130.769 25.724 130.3 25.6173 129.884 25.404C129.478 25.18 129.142 24.8547 128.876 24.428H128.844V28.332H126.364V17.212ZM130.54 23.852C130.913 23.852 131.228 23.7507 131.484 23.548C131.74 23.3347 131.926 23.0467 132.044 22.684C132.172 22.3107 132.236 21.8733 132.236 21.372C132.236 20.892 132.172 20.4653 132.044 20.092C131.926 19.708 131.74 19.4093 131.484 19.196C131.228 18.972 130.908 18.86 130.524 18.86C130.15 18.86 129.83 18.956 129.564 19.148C129.308 19.34 129.11 19.6227 128.972 19.996C128.844 20.3587 128.78 20.8173 128.78 21.372C128.78 21.8733 128.844 22.3107 128.972 22.684C129.1 23.0467 129.292 23.3347 129.548 23.548C129.814 23.7507 130.145 23.852 130.54 23.852ZM136.13 14.076H138.626V25.5H136.13V14.076ZM144.508 25.724C143.623 25.724 142.855 25.5427 142.204 25.18C141.553 24.8067 141.052 24.2893 140.7 23.628C140.359 22.956 140.188 22.1827 140.188 21.308C140.188 20.4227 140.359 19.6493 140.7 18.988C141.052 18.316 141.553 17.7987 142.204 17.436C142.855 17.0627 143.623 16.876 144.508 16.876C145.393 16.876 146.161 17.0627 146.812 17.436C147.463 17.8093 147.959 18.332 148.3 19.004C148.652 19.6653 148.828 20.4333 148.828 21.308C148.828 22.1827 148.652 22.956 148.3 23.628C147.959 24.2893 147.463 24.8067 146.812 25.18C146.161 25.5427 145.393 25.724 144.508 25.724ZM144.508 23.852C144.903 23.852 145.233 23.7507 145.5 23.548C145.777 23.3453 145.98 23.0573 146.108 22.684C146.247 22.3 146.316 21.8413 146.316 21.308C146.316 20.796 146.252 20.348 146.124 19.964C145.996 19.58 145.793 19.2813 145.516 19.068C145.249 18.8547 144.908 18.748 144.492 18.748C144.119 18.748 143.799 18.844 143.532 19.036C143.265 19.228 143.057 19.5213 142.908 19.916C142.769 20.3 142.7 20.764 142.7 21.308C142.7 21.8413 142.769 22.3 142.908 22.684C143.057 23.0573 143.265 23.3453 143.532 23.548C143.799 23.7507 144.124 23.852 144.508 23.852ZM152.598 25.724C152.001 25.724 151.483 25.6227 151.046 25.42C150.609 25.2067 150.267 24.9027 150.022 24.508C149.787 24.1133 149.67 23.6387 149.67 23.084C149.67 22.476 149.83 21.9747 150.15 21.58C150.481 21.1747 150.955 20.8813 151.574 20.7C152.203 20.508 152.966 20.412 153.862 20.412H155.206V19.996C155.206 19.6547 155.163 19.372 155.078 19.148C154.993 18.9133 154.843 18.7373 154.63 18.62C154.427 18.5027 154.15 18.444 153.798 18.444C153.393 18.444 153.078 18.5133 152.854 18.652C152.63 18.7907 152.481 18.9933 152.406 19.26H150.022C150.097 18.7373 150.283 18.3 150.582 17.948C150.891 17.596 151.318 17.3293 151.862 17.148C152.406 16.9667 153.073 16.876 153.862 16.876C154.758 16.876 155.483 16.9987 156.038 17.244C156.593 17.4893 156.998 17.8573 157.254 18.348C157.51 18.828 157.638 19.4467 157.638 20.204V25.5H155.414L155.286 24.476H155.158C155.019 24.7107 154.833 24.924 154.598 25.116C154.374 25.2973 154.091 25.4413 153.75 25.548C153.419 25.6653 153.035 25.724 152.598 25.724ZM153.494 24.06C153.825 24.06 154.118 23.9907 154.374 23.852C154.641 23.7133 154.843 23.5107 154.982 23.244C155.131 22.9773 155.206 22.6573 155.206 22.284V21.692H154.262C153.835 21.692 153.473 21.7347 153.174 21.82C152.875 21.8947 152.641 22.0227 152.47 22.204C152.31 22.3747 152.23 22.6093 152.23 22.908C152.23 23.164 152.283 23.3773 152.39 23.548C152.497 23.7187 152.646 23.8467 152.838 23.932C153.03 24.0173 153.249 24.06 153.494 24.06ZM162.141 25.724C161.405 25.724 160.77 25.5267 160.237 25.132C159.714 24.7373 159.319 24.2093 159.053 23.548C158.786 22.8867 158.653 22.14 158.653 21.308C158.653 20.476 158.786 19.7347 159.053 19.084C159.319 18.4333 159.714 17.9267 160.237 17.564C160.759 17.1907 161.389 17.004 162.125 17.004C162.626 17.004 163.09 17.116 163.517 17.34C163.943 17.564 164.274 17.8787 164.509 18.284H164.541V14.076H167.053V25.5H164.637V24.412H164.605C164.349 24.86 164.013 25.1907 163.597 25.404C163.181 25.6173 162.695 25.724 162.141 25.724ZM162.877 23.852C163.271 23.852 163.591 23.756 163.837 23.564C164.093 23.3613 164.285 23.0733 164.413 22.7C164.551 22.316 164.621 21.8627 164.621 21.34C164.621 20.828 164.557 20.3907 164.429 20.028C164.301 19.6547 164.103 19.3667 163.837 19.164C163.581 18.9613 163.261 18.86 162.877 18.86C162.514 18.86 162.205 18.9613 161.949 19.164C161.693 19.3667 161.495 19.6547 161.357 20.028C161.229 20.4013 161.165 20.844 161.165 21.356C161.165 21.836 161.229 22.268 161.357 22.652C161.485 23.0253 161.677 23.3187 161.933 23.532C162.189 23.7453 162.503 23.852 162.877 23.852ZM172.345 17.212H174.985L176.553 22.972H176.585L178.169 17.212H180.713L177.993 25.5H175.049L172.345 17.212ZM181.614 17.212H184.11V25.5H181.614V17.212ZM182.862 16.204C182.585 16.204 182.34 16.1507 182.126 16.044C181.913 15.9267 181.748 15.772 181.63 15.58C181.524 15.3773 181.47 15.1533 181.47 14.908C181.47 14.652 181.524 14.428 181.63 14.236C181.748 14.044 181.913 13.8893 182.126 13.772C182.34 13.6547 182.59 13.596 182.878 13.596C183.156 13.596 183.401 13.6547 183.614 13.772C183.828 13.8893 183.988 14.044 184.094 14.236C184.212 14.428 184.27 14.652 184.27 14.908C184.27 15.164 184.212 15.388 184.094 15.58C183.977 15.772 183.812 15.9267 183.598 16.044C183.396 16.1507 183.15 16.204 182.862 16.204ZM188.984 25.724C188.248 25.724 187.614 25.5267 187.08 25.132C186.558 24.7373 186.163 24.2093 185.896 23.548C185.63 22.8867 185.496 22.14 185.496 21.308C185.496 20.476 185.63 19.7347 185.896 19.084C186.163 18.4333 186.558 17.9267 187.08 17.564C187.603 17.1907 188.232 17.004 188.968 17.004C189.47 17.004 189.934 17.116 190.36 17.34C190.787 17.564 191.118 17.8787 191.352 18.284H191.384V14.076H193.896V25.5H191.48V24.412H191.448C191.192 24.86 190.856 25.1907 190.44 25.404C190.024 25.6173 189.539 25.724 188.984 25.724ZM189.72 23.852C190.115 23.852 190.435 23.756 190.68 23.564C190.936 23.3613 191.128 23.0733 191.256 22.7C191.395 22.316 191.464 21.8627 191.464 21.34C191.464 20.828 191.4 20.3907 191.272 20.028C191.144 19.6547 190.947 19.3667 190.68 19.164C190.424 18.9613 190.104 18.86 189.72 18.86C189.358 18.86 189.048 18.9613 188.792 19.164C188.536 19.3667 188.339 19.6547 188.2 20.028C188.072 20.4013 188.008 20.844 188.008 21.356C188.008 21.836 188.072 22.268 188.2 22.652C188.328 23.0253 188.52 23.3187 188.776 23.532C189.032 23.7453 189.347 23.852 189.72 23.852ZM199.391 25.724C198.548 25.724 197.807 25.548 197.167 25.196C196.537 24.844 196.047 24.3427 195.695 23.692C195.353 23.0413 195.183 22.268 195.183 21.372C195.183 20.54 195.353 19.7933 195.695 19.132C196.047 18.46 196.537 17.9373 197.167 17.564C197.807 17.1907 198.548 17.004 199.391 17.004C200.287 17.004 201.039 17.196 201.647 17.58C202.265 17.9533 202.735 18.4867 203.055 19.18C203.375 19.8733 203.535 20.6947 203.535 21.644V21.932H197.151V20.492H201.119C201.097 20.1293 201.017 19.82 200.879 19.564C200.74 19.2973 200.543 19.0893 200.287 18.94C200.041 18.7907 199.748 18.716 199.407 18.716C199.065 18.716 198.772 18.7853 198.527 18.924C198.281 19.0627 198.079 19.2653 197.919 19.532C197.759 19.7987 197.657 20.1187 197.615 20.492V21.932C197.625 22.3693 197.705 22.7427 197.855 23.052C198.004 23.3507 198.217 23.5853 198.495 23.756C198.783 23.916 199.129 23.996 199.535 23.996C199.951 23.996 200.292 23.916 200.559 23.756C200.825 23.596 201.007 23.3773 201.103 23.1H203.359C203.124 23.9427 202.671 24.5933 201.999 25.052C201.327 25.5 200.457 25.724 199.391 25.724ZM209.039 25.724C208.154 25.724 207.386 25.5427 206.735 25.18C206.085 24.8067 205.583 24.2893 205.231 23.628C204.89 22.956 204.719 22.1827 204.719 21.308C204.719 20.4227 204.89 19.6493 205.231 18.988C205.583 18.316 206.085 17.7987 206.735 17.436C207.386 17.0627 208.154 16.876 209.039 16.876C209.925 16.876 210.693 17.0627 211.343 17.436C211.994 17.8093 212.49 18.332 212.831 19.004C213.183 19.6653 213.359 20.4333 213.359 21.308C213.359 22.1827 213.183 22.956 212.831 23.628C212.49 24.2893 211.994 24.8067 211.343 25.18C210.693 25.5427 209.925 25.724 209.039 25.724ZM209.039 23.852C209.434 23.852 209.765 23.7507 210.031 23.548C210.309 23.3453 210.511 23.0573 210.639 22.684C210.778 22.3 210.847 21.8413 210.847 21.308C210.847 20.796 210.783 20.348 210.655 19.964C210.527 19.58 210.325 19.2813 210.047 19.068C209.781 18.8547 209.439 18.748 209.023 18.748C208.65 18.748 208.33 18.844 208.063 19.036C207.797 19.228 207.589 19.5213 207.439 19.916C207.301 20.3 207.231 20.764 207.231 21.308C207.231 21.8413 207.301 22.3 207.439 22.684C207.589 23.0573 207.797 23.3453 208.063 23.548C208.33 23.7507 208.655 23.852 209.039 23.852Z" fill="white"/>
</svg>
